<?xml version="1.0" encoding="UTF-8"?>
<svg width="512" height="512" viewBox="0 0 512 512" fill="none" xmlns="http://www.w3.org/2000/svg">
  <rect width="512" height="512" rx="128" fill="#4C1D95"/>
  <path d="M256 384C256 384 400 288 400 192C400 130.144 349.856 80 288 80C260.417 80 235.225 91.2487 216.785 109.689C257.216 150.12 257.216 215.88 216.785 256.311M256 384C256 384 112 288 112 192C112 130.144 162.144 80 224 80C251.583 80 276.775 91.2487 295.215 109.689C254.784 150.12 254.784 215.88 295.215 256.311M256 384V256" stroke="white" stroke-width="32" stroke-linecap="round" stroke-linejoin="round"/>
</svg> 